<?xml version="1.0" encoding="utf-8"?>
<!-- Generator: Adobe Illustrator 25.0.0, SVG Export Plug-In . SVG Version: 6.00 Build 0)  -->
<svg version="1.1" id="Layer_1" xmlns="http://www.w3.org/2000/svg" xmlns:xlink="http://www.w3.org/1999/xlink" x="0px" y="0px"
	 viewBox="0 0 432 216" style="enable-background:new 0 0 432 216;" xml:space="preserve">
<style type="text/css">
	.st0{fill:#004D71;}
	.st1{fill:#3CB4E5;}
	.st2{fill:#8CCCEE;}
	.st3{fill:#C8E5F6;}
</style>
<g>
	<path class="st0" d="M79.72,112.41l-6.29,7.09v21.88h-9.99V74.75h9.99v33.06l27.87-33.06h12.39l-27.47,31.57l29.67,35.06H103.5
		L79.72,112.41z M124.08,124.3c4.5,4.99,11.69,9.39,20.98,9.39c10.79,0,14.58-5.49,14.58-10.29c0-6.99-7.59-8.99-16.08-11.19
		c-10.69-2.8-23.08-5.89-23.08-19.48c0-10.99,9.69-18.98,23.57-18.98c10.29,0,18.38,3.3,24.27,9.29l-5.79,7.39
		c-5.1-5.39-12.09-7.79-19.28-7.79c-7.39,0-12.49,3.8-12.49,9.39c0,5.99,7.19,7.89,15.48,9.99c10.89,2.9,23.57,6.29,23.57,20.48
		c0,10.39-7.19,20.08-25.17,20.08c-11.89,0-20.58-4.29-26.27-10.59L124.08,124.3z M240.76,88.44l-21.58,52.94h-4.2l-21.58-52.94
		v52.94h-9.99V74.75h14.28l19.38,47.85l19.38-47.85h14.28v66.63h-9.99V88.44z"/>
	<g>
		<g>
			<polygon class="st1" points="96.72,167.25 96.72,190.58 136.56,150.74 			"/>
			<polygon class="st2" points="95.6,167.25 55.76,150.74 95.6,190.58 			"/>
			<polygon class="st3" points="96.16,166.26 136.13,149.7 56.19,149.7 			"/>
		</g>
		<g>
			<polygon class="st1" points="37.18,108.83 13.84,108.83 53.68,148.66 			"/>
			<polygon class="st3" points="54.72,148.23 54.72,68.29 41.29,100.71 38.17,108.26 			"/>
			<polygon class="st2" points="13.84,107.7 37.18,107.7 53.68,67.86 			"/>
		</g>
		<g>
			<polygon class="st3" points="56.19,66.82 136.13,66.82 96.16,50.27 			"/>
			<polygon class="st1" points="95.6,49.28 95.6,25.95 55.76,65.78 			"/>
			<polygon class="st2" points="96.72,49.28 136.56,65.78 96.72,25.95 			"/>
		</g>
	</g>
	<path class="st0" d="M268.57,95.67H262v-2.79h16.27v2.79h-6.54v18.37h-3.17V95.67z M284.43,98.34c4.6,0,7.45,3.58,7.45,8.28v0.7
		h-12.12c0.22,2.6,2.13,4.76,5.2,4.76c1.62,0,3.39-0.63,4.54-1.81l1.33,1.87c-1.52,1.49-3.68,2.28-6.15,2.28
		c-4.57,0-7.93-3.24-7.93-8.06C276.75,101.92,279.96,98.34,284.43,98.34z M279.73,105.25h9.36c-0.06-2.03-1.43-4.57-4.66-4.57
		C281.35,100.69,279.89,103.16,279.73,105.25z M302,98.34c2.89,0,4.63,1.2,5.74,2.7l-1.9,1.75c-0.92-1.3-2.16-1.9-3.71-1.9
		c-3.01,0-4.95,2.32-4.95,5.49c0,3.17,1.94,5.52,4.95,5.52c1.55,0,2.79-0.64,3.71-1.9l1.9,1.74c-1.11,1.49-2.85,2.7-5.74,2.7
		c-4.63,0-7.8-3.46-7.8-8.06C294.2,101.76,297.37,98.34,302,98.34z M320.91,104.18c0-2.54-1.3-3.3-3.27-3.3
		c-1.78,0-3.39,1.08-4.22,2.22v10.95h-2.85V92.88h2.85v7.99c1.02-1.24,3.08-2.54,5.43-2.54c3.27,0,4.92,1.65,4.92,4.89v10.82h-2.86
		V104.18z M338.36,104.24c0-2.54-1.3-3.36-3.27-3.36c-1.78,0-3.39,1.08-4.22,2.22v10.95h-2.86V98.72h2.86v2.16
		c1.02-1.24,3.05-2.54,5.43-2.54c3.24,0,4.92,1.71,4.92,4.95v10.75h-2.85V104.24z M344.48,106.36c0-4.41,2.98-8.03,7.74-8.03
		c4.79,0,7.74,3.62,7.74,8.03c0,4.44-2.95,8.06-7.74,8.06C347.47,114.42,344.48,110.81,344.48,106.36z M356.98,106.36
		c0-2.89-1.68-5.49-4.76-5.49c-3.05,0-4.76,2.6-4.76,5.49c0,2.92,1.71,5.52,4.76,5.52C355.3,111.88,356.98,109.28,356.98,106.36z
		 M363.27,92.88h2.85v21.16h-2.85V92.88z M369.39,106.36c0-4.41,2.98-8.03,7.74-8.03c4.79,0,7.74,3.62,7.74,8.03
		c0,4.44-2.95,8.06-7.74,8.06C372.37,114.42,369.39,110.81,369.39,106.36z M381.89,106.36c0-2.89-1.68-5.49-4.76-5.49
		c-3.05,0-4.76,2.6-4.76,5.49c0,2.92,1.71,5.52,4.76,5.52C380.21,111.88,381.89,109.28,381.89,106.36z M389.41,115.88
		c1.27,1.46,2.82,2.03,4.92,2.03c2.38,0,4.76-1.14,4.76-4.38v-2c-1.17,1.52-2.98,2.63-5.04,2.63c-3.97,0-6.82-2.92-6.82-7.93
		c0-4.92,2.85-7.9,6.82-7.9c2,0,3.81,0.95,5.04,2.6v-2.22h2.86v14.72c0,5.27-3.84,6.82-7.61,6.82c-2.57,0-4.44-0.54-6.28-2.28
		L389.41,115.88z M399.08,103.13c-0.79-1.24-2.54-2.25-4.25-2.25c-2.86,0-4.63,2.22-4.63,5.36c0,3.17,1.78,5.39,4.63,5.39
		c1.71,0,3.46-1.05,4.25-2.28V103.13z M407.11,117.72c1.05,0,1.75-0.35,2.22-1.49l0.89-2.03l-6.31-15.48h3.05l4.79,12.02l4.79-12.02
		h3.08l-7.55,18.24c-0.98,2.41-2.66,3.27-4.88,3.3c-0.48,0-1.33-0.09-1.78-0.22l0.44-2.57
		C406.19,117.63,406.73,117.72,407.11,117.72z"/>
	<path class="st0" d="M268.57,120.22h8.91c4.35,0,6.76,2.98,6.76,6.5c0,3.52-2.44,6.5-6.76,6.5h-5.74v8.15h-3.17V120.22z
		 M277.07,123.01h-5.33v7.42h5.33c2.28,0,3.9-1.49,3.9-3.71C280.97,124.5,279.35,123.01,277.07,123.01z M295.94,139.7
		c-1.2,1.33-2.95,2.06-5.01,2.06c-2.54,0-5.33-1.71-5.33-5.08c0-3.49,2.76-5.01,5.33-5.01c2.06,0,3.84,0.67,5.01,2.03v-2.54
		c0-1.9-1.55-3.05-3.74-3.05c-1.75,0-3.24,0.67-4.6,2.03l-1.24-1.97c1.71-1.68,3.81-2.51,6.28-2.51c3.33,0,6.15,1.46,6.15,5.36
		v10.34h-2.86V139.7z M295.94,135.41c-0.86-1.14-2.35-1.74-3.93-1.74c-2.06,0-3.52,1.24-3.52,3.05c0,1.81,1.46,3.05,3.52,3.05
		c1.59,0,3.08-0.6,3.93-1.75V135.41z M302.38,126.06h2.86v2.35c1.17-1.52,2.98-2.7,5.01-2.7v2.89c-0.29-0.06-0.6-0.09-0.98-0.09
		c-1.43,0-3.36,1.08-4.03,2.22v10.66h-2.86V126.06z M314.43,137.98v-9.42h-2.54v-2.51h2.54v-4.19h2.85v4.19h3.11v2.51h-3.11v8.79
		c0,1.08,0.51,1.87,1.49,1.87c0.67,0,1.27-0.29,1.55-0.6l0.73,2.16c-0.6,0.57-1.49,0.98-2.98,0.98
		C315.67,141.76,314.43,140.4,314.43,137.98z M333.86,131.58c0-2.54-1.3-3.36-3.27-3.36c-1.78,0-3.39,1.08-4.22,2.22v10.95h-2.85
		v-15.32h2.85v2.16c1.02-1.24,3.05-2.54,5.43-2.54c3.24,0,4.92,1.71,4.92,4.95v10.75h-2.86V131.58z M347.26,125.68
		c4.6,0,7.45,3.58,7.45,8.28v0.7H342.6c0.22,2.6,2.13,4.76,5.2,4.76c1.62,0,3.39-0.63,4.54-1.81l1.33,1.87
		c-1.52,1.49-3.68,2.28-6.15,2.28c-4.57,0-7.93-3.24-7.93-8.06C339.58,129.26,342.79,125.68,347.26,125.68z M342.56,132.59h9.36
		c-0.06-2.03-1.43-4.57-4.66-4.57C344.18,128.02,342.72,130.5,342.56,132.59z M357.58,126.06h2.85v2.35c1.17-1.52,2.98-2.7,5.01-2.7
		v2.89c-0.29-0.06-0.6-0.09-0.98-0.09c-1.43,0-3.36,1.08-4.03,2.22v10.66h-2.85V126.06z M368.02,137.29
		c1.05,1.14,3.08,2.19,5.14,2.19c2.16,0,3.3-0.89,3.3-2.19c0-1.52-1.74-2.03-3.71-2.47c-2.6-0.6-5.65-1.3-5.65-4.6
		c0-2.44,2.09-4.54,5.84-4.54c2.63,0,4.54,0.95,5.84,2.19l-1.27,2c-0.89-1.08-2.6-1.87-4.54-1.87c-1.94,0-3.14,0.76-3.14,2
		c0,1.33,1.65,1.78,3.55,2.22c2.66,0.6,5.84,1.33,5.84,4.85c0,2.63-2.16,4.69-6.19,4.69c-2.57,0-4.82-0.79-6.38-2.38L368.02,137.29z
		"/>
</g>
</svg>
